<?xml version="1.0" encoding="UTF-8" standalone="no"?>
<!DOCTYPE svg PUBLIC "-//W3C//DTD SVG 1.1//EN" "http://www.w3.org/Graphics/SVG/1.1/DTD/svg11.dtd">
<svg width="100%" height="100%" viewBox="0 0 48 48" version="1.1" xmlns="http://www.w3.org/2000/svg" xmlns:xlink="http://www.w3.org/1999/xlink" xml:space="preserve" xmlns:serif="http://www.serif.com/" style="fill-rule:evenodd;clip-rule:evenodd;stroke-linejoin:round;stroke-miterlimit:2;">
    <rect id="monkeyIcon" x="0" y="0" width="48" height="48" style="fill:none;"/>
    <g id="monkeyIcon1" serif:id="monkeyIcon">
        <g id="monkey_icon">
            <g id="faceplate" transform="matrix(1,0,0,1,13.4581,13)">
                <path d="M26.724,27.277C27.365,26.727 27.771,25.91 27.771,25C27.771,23.344 26.427,22 24.771,22C23.728,22 22.809,22.533 22.271,23.342C21.733,22.533 20.814,22 19.771,22C18.115,22 16.771,23.344 16.771,25C16.771,25.799 17.084,26.525 17.594,27.063C16.743,27.586 16.229,28.262 16.229,29C16.229,30.656 18.815,32 22,32C25.185,32 27.771,30.656 27.771,29C27.771,28.359 27.383,27.765 26.724,27.277Z" style="fill:rgb(241,242,242);"/>
            </g>
            <g id="monkey" transform="matrix(1,0,0,1,13.4581,13)">
                <path d="M14.959,29.041C12.747,29.019 10.958,27.217 10.958,25C10.958,22.769 12.769,20.958 15,20.958C15.016,20.958 15.032,20.958 15.047,20.959C16.441,18.567 19.034,16.958 22,16.958C24.966,16.958 27.559,18.567 28.952,20.959C28.968,20.958 28.984,20.958 29,20.958C31.231,20.958 33.042,22.769 33.042,25C33.042,27.231 31.231,29.042 29,29.042C28.984,29.042 28.968,29.042 28.953,29.041C28.803,29.297 28.641,29.544 28.466,29.78C28.264,30.435 27.801,31.057 27.096,31.574C26.14,32.274 24.699,32.802 23.022,32.977C22.687,33.02 22.346,33.042 22,33.042C21.966,33.042 21.932,33.041 21.898,33.041C21.855,33.041 21.813,33.042 21.771,33.042C19.609,33.042 17.7,32.464 16.512,31.621C15.507,30.908 14.974,29.991 14.959,29.041ZM26.724,27.277C27.365,26.727 27.771,25.91 27.771,25C27.771,23.344 26.427,22 24.771,22C23.728,22 22.809,22.533 22.271,23.342C21.733,22.533 20.814,22 19.771,22C18.115,22 16.771,23.344 16.771,25C16.771,25.799 17.084,26.525 17.594,27.063C16.743,27.586 16.229,28.262 16.229,29C16.229,30.656 18.815,32 22,32C25.185,32 27.771,30.656 27.771,29C27.771,28.359 27.383,27.765 26.724,27.277ZM22,26C22.552,26 23,26.224 23,26.5C23,26.776 22.552,27 22,27C21.448,27 21,26.776 21,26.5C21,26.224 21.448,26 22,26ZM18.285,29.453C18.035,29.311 17.947,28.993 18.089,28.743C18.231,28.493 18.549,28.405 18.799,28.547C20.961,29.772 23.123,29.774 25.285,28.547C25.535,28.405 25.853,28.493 25.995,28.743C26.137,28.993 26.049,29.311 25.799,29.453C23.294,30.874 20.79,30.872 18.285,29.453ZM19.542,24C20.094,24 20.542,24.448 20.542,25C20.542,25.552 20.094,26 19.542,26C18.99,26 18.542,25.552 18.542,25C18.542,24.448 18.99,24 19.542,24ZM24.542,24C25.094,24 25.542,24.448 25.542,25C25.542,25.552 25.094,26 24.542,26C23.99,26 23.542,25.552 23.542,25C23.542,24.448 23.99,24 24.542,24Z" style="fill:rgb(102,102,110);"/>
            </g>
        </g>
    </g>
</svg>
