<?xml version="1.0" encoding="UTF-8" standalone="no"?>
<!DOCTYPE svg PUBLIC "-//W3C//DTD SVG 1.1//EN" "http://www.w3.org/Graphics/SVG/1.1/DTD/svg11.dtd">
<svg width="100%" height="100%" viewBox="0 0 48 48" version="1.1" xmlns="http://www.w3.org/2000/svg" xmlns:xlink="http://www.w3.org/1999/xlink" xml:space="preserve" xmlns:serif="http://www.serif.com/" style="fill-rule:evenodd;clip-rule:evenodd;stroke-linejoin:round;stroke-miterlimit:2;">
    <g id="light-keyboardMonkey" serif:id="light/keyboardMonkey" transform="matrix(0.677278,0,0,0.677278,0,0)">
        <rect x="0" y="0" width="70.872" height="70.866" style="fill:none;"/>
        <g id="Keyboard-Component" serif:id="Keyboard Component" transform="matrix(1,0,0,1,-0.17165,-2.18075)">
            <g transform="matrix(1,0,0,1,9.3671,54.3903)">
                <path d="M0,-35.553C-3.295,-35.553 -5.968,-32.882 -5.968,-29.585L-5.968,-3.967C-5.968,-0.672 -3.295,2 0,2L52.482,2C55.778,2 58.449,-0.671 58.449,-3.967C58.449,-3.967 58.449,-29.585 58.449,-29.585C58.449,-32.882 55.777,-35.553 52.482,-35.553C52.482,-35.553 0,-35.553 0,-35.553ZM0,-31.553L52.482,-31.553C53.569,-31.553 54.449,-30.672 54.449,-29.585L54.449,-3.967C54.449,-2.881 53.568,-2 52.482,-2C52.482,-2 -0,-2 -0,-2C-1.087,-2 -1.968,-2.88 -1.968,-3.967C-1.968,-3.967 -1.968,-29.585 -1.968,-29.585C-1.968,-30.672 -1.087,-31.553 0,-31.553Z" style="fill:rgb(102,102,110);"/>
            </g>
            <g id="Keys">
                <g transform="matrix(-1,0,0,1,72.153,23.9171)">
                    <rect x="18.035" y="21.058" width="36.083" height="4.833" style="fill:rgb(242,84,91);"/>
                </g>
                <g transform="matrix(-1,0,0,1,27.091,23.9171)">
                    <rect x="10.66" y="21.058" width="5.771" height="4.833" style="fill:rgb(102,102,110);"/>
                </g>
                <g transform="matrix(-1,0,0,1,116.279,23.9171)">
                    <rect x="55.723" y="21.058" width="4.833" height="4.833" style="fill:rgb(102,102,110);"/>
                </g>
                <g transform="matrix(-1,0,0,1,116.279,-1.8329)">
                    <rect x="55.723" y="33.933" width="4.833" height="4.833" style="fill:rgb(102,102,110);"/>
                </g>
                <g transform="matrix(-1,0,0,1,113.862,-14.7069)">
                    <rect x="53.306" y="40.37" width="7.25" height="4.833" style="fill:rgb(2,169,234);"/>
                </g>
                <g transform="matrix(-1,0,0,1,113.862,11.0431)">
                    <rect x="53.306" y="27.495" width="7.25" height="4.833" style="fill:rgb(2,169,234);"/>
                </g>
                <g transform="matrix(-1,0,0,1,103.403,-1.8329)">
                    <rect x="49.285" y="33.933" width="4.833" height="4.833" style="fill:rgb(102,102,110);"/>
                </g>
                <g transform="matrix(-1,0,0,1,90.529,-1.8329)">
                    <rect x="42.848" y="33.933" width="4.833" height="4.833" style="fill:rgb(102,102,110);"/>
                </g>
                <g transform="matrix(-1,0,0,1,77.653,-2.3209)">
                    <rect x="36.41" y="34.177" width="4.833" height="4.833" style="fill:rgb(102,102,110);"/>
                </g>
                <g transform="matrix(-1,0,0,1,64.779,-2.3209)">
                    <rect x="29.973" y="34.177" width="4.833" height="4.833" style="fill:rgb(102,102,110);"/>
                </g>
                <g transform="matrix(-1,0,0,1,51.903,-2.3209)">
                    <rect x="23.535" y="34.177" width="4.833" height="4.833" style="fill:rgb(102,102,110);"/>
                </g>
                <g transform="matrix(-1,0,0,1,39.029,-2.3209)">
                    <rect x="17.098" y="34.177" width="4.833" height="4.833" style="fill:rgb(102,102,110);"/>
                </g>
                <g transform="matrix(-1,0,0,1,26.153,-2.3209)">
                    <rect x="10.66" y="34.177" width="4.833" height="4.833" style="fill:rgb(102,102,110);"/>
                </g>
                <g transform="matrix(-1,0,0,1,98.571,11.0431)">
                    <rect x="46.869" y="27.495" width="4.833" height="4.833" style="fill:rgb(102,102,110);"/>
                </g>
                <g transform="matrix(-1,0,0,1,85.695,11.0431)">
                    <rect x="40.431" y="27.495" width="4.833" height="4.833" style="fill:rgb(102,102,110);"/>
                </g>
                <g transform="matrix(-1,0,0,1,72.821,10.5551)">
                    <rect x="33.994" y="27.739" width="4.833" height="4.833" style="fill:rgb(102,102,110);"/>
                </g>
                <g transform="matrix(-1,0,0,1,59.945,10.5551)">
                    <rect x="27.556" y="27.739" width="4.833" height="4.833" style="fill:rgb(102,102,110);"/>
                </g>
                <g transform="matrix(-1,0,0,1,47.071,10.5551)">
                    <rect x="21.119" y="27.739" width="4.833" height="4.833" style="fill:rgb(102,102,110);"/>
                </g>
                <g transform="matrix(-1,0,0,1,30.174,10.5551)">
                    <rect x="10.66" y="27.739" width="8.854" height="4.833" style="fill:rgb(2,169,234);"/>
                </g>
                <g transform="matrix(-1,0,0,1,98.571,-14.7069)">
                    <rect x="46.869" y="40.37" width="4.833" height="4.833" style="fill:rgb(102,102,110);"/>
                </g>
                <g transform="matrix(-1,0,0,1,85.695,-14.7069)">
                    <rect x="40.431" y="40.37" width="4.833" height="4.833" style="fill:rgb(102,102,110);"/>
                </g>
                <g transform="matrix(-1,0,0,1,72.821,-15.1949)">
                    <rect x="33.994" y="40.614" width="4.833" height="4.833" style="fill:rgb(102,102,110);"/>
                </g>
                <g transform="matrix(-1,0,0,1,59.945,-15.1949)">
                    <rect x="27.556" y="40.614" width="4.833" height="4.833" style="fill:rgb(102,102,110);"/>
                </g>
                <g transform="matrix(-1,0,0,1,47.071,-15.1949)">
                    <rect x="21.119" y="40.614" width="4.833" height="4.833" style="fill:rgb(102,102,110);"/>
                </g>
                <g transform="matrix(-1,0,0,1,34.195,-15.1949)">
                    <rect x="14.681" y="40.614" width="4.833" height="4.833" style="fill:rgb(102,102,110);"/>
                </g>
            </g>
        </g>
        <g id="monkey_icon" transform="matrix(1.83606,0,0,1.83606,-16.7195,-16.5548)">
            <g id="faceplate" transform="matrix(1,0,0,1,13.4581,13)">
                <path d="M14.959,29.041C12.747,29.019 10.958,27.217 10.958,25C10.958,22.769 12.769,20.958 15,20.958C15.016,20.958 15.032,20.958 15.047,20.959C16.441,18.567 19.034,16.958 22,16.958C24.966,16.958 27.559,18.567 28.952,20.959C28.968,20.958 28.984,20.958 29,20.958C31.231,20.958 33.042,22.769 33.042,25C33.042,27.231 31.231,29.042 29,29.042C28.984,29.042 28.968,29.042 28.953,29.041C28.803,29.297 28.641,29.544 28.466,29.78C28.264,30.435 27.096,31.574 27.096,31.574C27.096,31.574 24.699,32.802 23.022,32.977C22.687,33.02 22.346,33.042 22,33.042C21.966,33.042 21.932,33.041 21.898,33.041C21.855,33.041 21.813,33.042 21.771,33.042C19.609,33.042 17.7,32.464 16.512,31.621C15.507,30.908 14.974,29.991 14.959,29.041Z" style="fill:rgb(241,242,242);"/>
            </g>
            <g id="monkey" transform="matrix(1,0,0,1,13.4581,13)">
                <path d="M14.959,29.041C12.747,29.019 10.958,27.217 10.958,25C10.958,22.769 12.769,20.958 15,20.958C15.016,20.958 15.032,20.958 15.047,20.959C16.441,18.567 19.034,16.958 22,16.958C24.966,16.958 27.559,18.567 28.952,20.959C28.968,20.958 28.984,20.958 29,20.958C31.231,20.958 33.042,22.769 33.042,25C33.042,27.231 31.231,29.042 29,29.042C28.984,29.042 28.968,29.042 28.953,29.041C28.803,29.297 28.641,29.544 28.466,29.78C28.264,30.435 27.096,31.574 27.096,31.574C27.096,31.574 24.699,32.802 23.022,32.977C22.687,33.02 22.346,33.042 22,33.042C21.966,33.042 21.932,33.041 21.898,33.041C21.855,33.041 21.813,33.042 21.771,33.042C19.609,33.042 17.7,32.464 16.512,31.621C15.507,30.908 14.974,29.991 14.959,29.041ZM26.724,26.897C27.365,26.346 27.771,25.53 27.771,24.62C27.771,22.964 26.427,21.62 24.771,21.62C23.728,21.62 22.809,22.153 22.271,22.962C21.733,22.153 20.814,21.62 19.771,21.62C18.115,21.62 16.771,22.964 16.771,24.62C16.771,25.419 17.084,26.145 17.594,26.683C16.743,27.206 16.229,27.882 16.229,28.62C16.229,30.275 18.815,31.62 22,31.62C25.185,31.62 27.771,30.275 27.771,28.62C27.771,27.979 27.383,27.384 26.724,26.897ZM22,25.62C22.552,25.62 23,25.844 23,26.12C23,26.396 22.552,26.62 22,26.62C21.448,26.62 21,26.396 21,26.12C21,25.844 21.448,25.62 22,25.62ZM18.285,29.073C18.035,28.931 17.947,28.613 18.089,28.363C18.231,28.113 18.549,28.025 18.799,28.167C20.961,29.392 23.123,29.393 25.285,28.167C25.535,28.025 25.853,28.113 25.995,28.363C26.137,28.613 26.049,28.931 25.799,29.073C23.294,30.494 20.79,30.492 18.285,29.073ZM19.542,23.62C20.094,23.62 20.542,24.068 20.542,24.62C20.542,25.172 20.094,25.62 19.542,25.62C18.99,25.62 18.542,25.172 18.542,24.62C18.542,24.068 18.99,23.62 19.542,23.62ZM24.542,23.62C25.094,23.62 25.542,24.068 25.542,24.62C25.542,25.172 25.094,25.62 24.542,25.62C23.99,25.62 23.542,25.172 23.542,24.62C23.542,24.068 23.99,23.62 24.542,23.62Z" style="fill:rgb(236,151,10);"/>
            </g>
        </g>
    </g>
</svg>
