<?xml version="1.0" encoding="UTF-8" standalone="no"?>
<!DOCTYPE svg PUBLIC "-//W3C//DTD SVG 1.1//EN" "http://www.w3.org/Graphics/SVG/1.1/DTD/svg11.dtd">
<svg width="100%" height="100%" viewBox="0 0 48 48" version="1.1" xmlns="http://www.w3.org/2000/svg" xmlns:xlink="http://www.w3.org/1999/xlink" xml:space="preserve" xmlns:serif="http://www.serif.com/" style="fill-rule:evenodd;clip-rule:evenodd;stroke-linejoin:round;stroke-miterlimit:2;">
    <g id="light-mouseMonkey" serif:id="light/mouseMonkey" transform="matrix(0.677278,0,0,0.677278,0,0)">
        <rect x="0" y="0" width="70.872" height="70.866" style="fill:none;"/>
        <g id="Mouse-Component" serif:id="Mouse Component" transform="matrix(1,0,0,1,20.0829,65.9198)">
            <path d="M0,-59.482C-2.987,-59.482 -5.416,-57.055 -5.416,-54.072L-5.416,-14.552C-5.416,-11.569 -2.987,-9.142 0,-9.142C1.354,-9.142 2.652,-9.652 3.655,-10.577L7.94,-14.526L13.266,-3.119C14.15,-1.224 16.074,0 18.166,0C18.921,0 19.655,-0.155 20.347,-0.46L25.391,-2.685C28.088,-3.875 29.329,-6.945 28.215,-9.675L23.504,-21.222L28.97,-21.424C31.152,-21.505 33.06,-22.877 33.83,-24.92C34.6,-26.963 34.073,-29.253 32.488,-30.754L3.708,-57.999C2.697,-58.955 1.381,-59.482 0,-59.482M0,-55.482C0.334,-55.482 0.675,-55.362 0.958,-55.094L29.738,-27.849C30.643,-26.992 30.069,-25.467 28.822,-25.421L19.65,-25.082C18.673,-25.046 18.03,-24.05 18.399,-23.145L24.511,-8.164C24.799,-7.458 24.474,-6.652 23.777,-6.345L18.733,-4.12C18.548,-4.038 18.355,-4 18.166,-4C17.635,-4 17.128,-4.301 16.89,-4.812L10.064,-19.432C9.82,-19.956 9.308,-20.244 8.787,-20.244C8.45,-20.244 8.11,-20.124 7.836,-19.871L0.944,-13.518C0.663,-13.259 0.328,-13.142 0,-13.142C-0.725,-13.142 -1.416,-13.708 -1.416,-14.552L-1.416,-54.072C-1.416,-54.917 -0.724,-55.482 0,-55.482" style="fill:rgb(102,102,110);fill-rule:nonzero;"/>
        </g>
        <g id="monkey_icon" transform="matrix(1.83606,0,0,1.83606,-16.7195,-16.5548)">
            <g id="faceplate" transform="matrix(1,0,0,1,13.4581,13)">
                <path d="M14.959,29.041C12.747,29.019 10.958,27.217 10.958,25C10.958,22.769 12.769,20.958 15,20.958C15.016,20.958 15.032,20.958 15.047,20.959C16.441,18.567 19.034,16.958 22,16.958C24.966,16.958 27.559,18.567 28.952,20.959C28.968,20.958 28.984,20.958 29,20.958C31.231,20.958 33.042,22.769 33.042,25C33.042,27.231 31.231,29.042 29,29.042C28.984,29.042 28.968,29.042 28.953,29.041C28.803,29.297 28.641,29.544 28.466,29.78C28.264,30.435 27.096,31.574 27.096,31.574C27.096,31.574 24.699,32.802 23.022,32.977C22.687,33.02 22.346,33.042 22,33.042C21.966,33.042 21.932,33.041 21.898,33.041C21.855,33.041 21.813,33.042 21.771,33.042C19.609,33.042 17.7,32.464 16.512,31.621C15.507,30.908 14.974,29.991 14.959,29.041Z" style="fill:rgb(241,242,242);"/>
            </g>
            <g id="monkey" transform="matrix(1,0,0,1,13.4581,13)">
                <path d="M14.959,29.041C12.747,29.019 10.958,27.217 10.958,25C10.958,22.769 12.769,20.958 15,20.958C15.016,20.958 15.032,20.958 15.047,20.959C16.441,18.567 19.034,16.958 22,16.958C24.966,16.958 27.559,18.567 28.952,20.959C28.968,20.958 28.984,20.958 29,20.958C31.231,20.958 33.042,22.769 33.042,25C33.042,27.231 31.231,29.042 29,29.042C28.984,29.042 28.968,29.042 28.953,29.041C28.803,29.297 28.641,29.544 28.466,29.78C28.264,30.435 27.096,31.574 27.096,31.574C27.096,31.574 24.699,32.802 23.022,32.977C22.687,33.02 22.346,33.042 22,33.042C21.966,33.042 21.932,33.041 21.898,33.041C21.855,33.041 21.813,33.042 21.771,33.042C19.609,33.042 17.7,32.464 16.512,31.621C15.507,30.908 14.974,29.991 14.959,29.041ZM26.724,26.897C27.365,26.346 27.771,25.53 27.771,24.62C27.771,22.964 26.427,21.62 24.771,21.62C23.728,21.62 22.809,22.153 22.271,22.962C21.733,22.153 20.814,21.62 19.771,21.62C18.115,21.62 16.771,22.964 16.771,24.62C16.771,25.419 17.084,26.145 17.594,26.683C16.743,27.206 16.229,27.882 16.229,28.62C16.229,30.275 18.815,31.62 22,31.62C25.185,31.62 27.771,30.275 27.771,28.62C27.771,27.979 27.383,27.384 26.724,26.897ZM22,25.62C22.552,25.62 23,25.844 23,26.12C23,26.396 22.552,26.62 22,26.62C21.448,26.62 21,26.396 21,26.12C21,25.844 21.448,25.62 22,25.62ZM18.285,29.073C18.035,28.931 17.947,28.613 18.089,28.363C18.231,28.113 18.549,28.025 18.799,28.167C20.961,29.392 23.123,29.393 25.285,28.167C25.535,28.025 25.853,28.113 25.995,28.363C26.137,28.613 26.049,28.931 25.799,29.073C23.294,30.494 20.79,30.492 18.285,29.073ZM19.542,23.62C20.094,23.62 20.542,24.068 20.542,24.62C20.542,25.172 20.094,25.62 19.542,25.62C18.99,25.62 18.542,25.172 18.542,24.62C18.542,24.068 18.99,23.62 19.542,23.62ZM24.542,23.62C25.094,23.62 25.542,24.068 25.542,24.62C25.542,25.172 25.094,25.62 24.542,25.62C23.99,25.62 23.542,25.172 23.542,24.62C23.542,24.068 23.99,23.62 24.542,23.62Z" style="fill:rgb(236,151,10);"/>
            </g>
        </g>
    </g>
</svg>
