<?xml version="1.0" encoding="UTF-8" standalone="no"?>
<!DOCTYPE svg PUBLIC "-//W3C//DTD SVG 1.1//EN" "http://www.w3.org/Graphics/SVG/1.1/DTD/svg11.dtd">
<svg width="100%" height="100%" viewBox="0 0 48 48" version="1.1" xmlns="http://www.w3.org/2000/svg" xmlns:xlink="http://www.w3.org/1999/xlink" xml:space="preserve" xmlns:serif="http://www.serif.com/" style="fill-rule:evenodd;clip-rule:evenodd;stroke-linecap:round;stroke-linejoin:round;stroke-miterlimit:1.5;">
    <g id="light-enderMonkey" serif:id="light/enderMonkey" transform="matrix(0.677278,0,0,0.677278,0,0)">
        <rect x="0" y="0" width="70.872" height="70.866" style="fill:none;"/>
        <g id="ender_icon">
            <g transform="matrix(1.06507,0,0,1.09266,62.3155,25.1005)">
                <path d="M-12.761,-9.459L-44.705,-9.459C-46.269,-9.459 -47.537,-8.191 -47.537,-6.627L-47.537,-2.832C-47.537,-1.268 -46.269,0 -44.705,0L-12.761,0" style="fill:rgb(37,169,234);fill-rule:nonzero;"/>
            </g>
            <g transform="matrix(1.05204,0,0,1.09266,61.9865,25.1005)">
                <path d="M0,-9.459L-12.606,-9.459L-12.606,0L0,0C1.564,0 2.832,-1.268 2.832,-2.832L2.832,-6.627C2.832,-8.191 1.564,-9.459 0,-9.459" style="fill:rgb(102,102,110);fill-opacity:0.5;fill-rule:nonzero;"/>
            </g>
            <g transform="matrix(1.06507,0,0,1.09266,62.3155,40.6037)">
                <path d="M-12.761,-9.459L-50.131,-9.459C-51.695,-9.459 -52.963,-8.191 -52.963,-6.627L-52.963,-2.832C-52.963,-1.268 -51.695,0 -50.131,0L-12.761,0" style="fill:rgb(37,169,234);fill-rule:nonzero;"/>
            </g>
            <g transform="matrix(1.05204,0,0,1.09266,61.9865,40.6037)">
                <path d="M-9.799,-9.459L-12.606,-9.459L-12.606,0L-9.799,0C-8.235,0 -6.967,-1.268 -6.967,-2.832L-6.967,-6.627C-6.967,-8.191 -8.235,-9.459 -9.799,-9.459" style="fill:rgb(102,102,110);fill-opacity:0.5;fill-rule:nonzero;"/>
            </g>
            <g transform="matrix(1.06507,0,0,1.09266,62.3155,56.1069)">
                <path d="M-12.761,-9.459L-41.873,-9.459C-43.437,-9.459 -44.705,-8.191 -44.705,-6.627L-44.705,-2.832C-44.705,-1.268 -43.437,0 -41.873,0L-12.761,0" style="fill:rgb(102,102,110);fill-rule:nonzero;"/>
            </g>
            <g transform="matrix(1.05204,0,0,1.09266,61.9865,56.1069)">
                <path d="M0,-9.459L-12.606,-9.459L-12.606,0L0,0C1.564,0 2.832,-1.268 2.832,-2.832L2.832,-6.627C2.832,-8.191 1.564,-9.459 0,-9.459" style="fill:rgb(102,102,110);fill-opacity:0.5;fill-rule:nonzero;"/>
            </g>
            <g transform="matrix(1.4765,0,0,2.12616,-23.624,-3.89795)">
                <path d="M49,6L49,31" style="fill:none;stroke:rgb(236,151,10);stroke-width:3.23px;"/>
            </g>
        </g>
        <g id="monkey_icon" transform="matrix(1.83606,0,0,1.83606,-16.7195,-16.5548)">
            <g id="faceplate" transform="matrix(1,0,0,1,13.4581,13)">
                <path d="M14.959,29.041C12.747,29.019 10.958,27.217 10.958,25C10.958,22.769 12.769,20.958 15,20.958C15.016,20.958 15.032,20.958 15.047,20.959C16.441,18.567 19.034,16.958 22,16.958C24.966,16.958 27.559,18.567 28.952,20.959C28.968,20.958 28.984,20.958 29,20.958C31.231,20.958 33.042,22.769 33.042,25C33.042,27.231 31.231,29.042 29,29.042C28.984,29.042 28.968,29.042 28.953,29.041C28.803,29.297 28.641,29.544 28.466,29.78C28.264,30.435 27.096,31.574 27.096,31.574C27.096,31.574 24.699,32.802 23.022,32.977C22.687,33.02 22.346,33.042 22,33.042C21.966,33.042 21.932,33.041 21.898,33.041C21.855,33.041 21.813,33.042 21.771,33.042C19.609,33.042 17.7,32.464 16.512,31.621C15.507,30.908 14.974,29.991 14.959,29.041Z" style="fill:rgb(241,242,242);"/>
            </g>
            <g id="monkey" transform="matrix(1,0,0,1,13.4581,13)">
                <path d="M14.959,29.041C12.747,29.019 10.958,27.217 10.958,25C10.958,22.769 12.769,20.958 15,20.958C15.016,20.958 15.032,20.958 15.047,20.959C16.441,18.567 19.034,16.958 22,16.958C24.966,16.958 27.559,18.567 28.952,20.959C28.968,20.958 28.984,20.958 29,20.958C31.231,20.958 33.042,22.769 33.042,25C33.042,27.231 31.231,29.042 29,29.042C28.984,29.042 28.968,29.042 28.953,29.041C28.803,29.297 28.641,29.544 28.466,29.78C28.264,30.435 27.096,31.574 27.096,31.574C27.096,31.574 24.699,32.802 23.022,32.977C22.687,33.02 22.346,33.042 22,33.042C21.966,33.042 21.932,33.041 21.898,33.041C21.855,33.041 21.813,33.042 21.771,33.042C19.609,33.042 17.7,32.464 16.512,31.621C15.507,30.908 14.974,29.991 14.959,29.041ZM26.724,26.897C27.365,26.346 27.771,25.53 27.771,24.62C27.771,22.964 26.427,21.62 24.771,21.62C23.728,21.62 22.809,22.153 22.271,22.962C21.733,22.153 20.814,21.62 19.771,21.62C18.115,21.62 16.771,22.964 16.771,24.62C16.771,25.419 17.084,26.145 17.594,26.683C16.743,27.206 16.229,27.882 16.229,28.62C16.229,30.275 18.815,31.62 22,31.62C25.185,31.62 27.771,30.275 27.771,28.62C27.771,27.979 27.383,27.384 26.724,26.897ZM22,25.62C22.552,25.62 23,25.844 23,26.12C23,26.396 22.552,26.62 22,26.62C21.448,26.62 21,26.396 21,26.12C21,25.844 21.448,25.62 22,25.62ZM18.285,29.073C18.035,28.931 17.947,28.613 18.089,28.363C18.231,28.113 18.549,28.025 18.799,28.167C20.961,29.392 23.123,29.393 25.285,28.167C25.535,28.025 25.853,28.113 25.995,28.363C26.137,28.613 26.049,28.931 25.799,29.073C23.294,30.494 20.79,30.492 18.285,29.073ZM19.542,23.62C20.094,23.62 20.542,24.068 20.542,24.62C20.542,25.172 20.094,25.62 19.542,25.62C18.99,25.62 18.542,25.172 18.542,24.62C18.542,24.068 18.99,23.62 19.542,23.62ZM24.542,23.62C25.094,23.62 25.542,24.068 25.542,24.62C25.542,25.172 25.094,25.62 24.542,25.62C23.99,25.62 23.542,25.172 23.542,24.62C23.542,24.068 23.99,23.62 24.542,23.62Z" style="fill:rgb(236,151,10);"/>
            </g>
        </g>
    </g>
</svg>
